<svg width="145" height="47" viewBox="0 0 145 47" fill="none" xmlns="http://www.w3.org/2000/svg">
<path d="M0.66 33V32.7L1.2 32.49C1.6 32.33 1.87 32.13 2.01 31.89C2.17 31.65 2.25 31.33 2.25 30.93V15.27C2.25 14.85 2.17 14.52 2.01 14.28C1.87 14.04 1.6 13.85 1.2 13.71L0.66 13.5V13.2H9.27C11.71 13.2 13.47 13.65 14.55 14.55C15.63 15.43 16.17 16.55 16.17 17.91C16.17 18.93 15.77 19.86 14.97 20.7C14.19 21.52 12.84 22.1 10.92 22.44C13.12 22.68 14.73 23.26 15.75 24.18C16.77 25.08 17.28 26.18 17.28 27.48C17.28 28.12 17.14 28.77 16.86 29.43C16.58 30.07 16.1 30.66 15.42 31.2C14.76 31.74 13.85 32.18 12.69 32.52C11.53 32.84 10.06 33 8.28 33H0.66ZM6.69 22.41H7.98C9.32 22.41 10.28 22.1 10.86 21.48C11.46 20.86 11.76 19.78 11.76 18.24C11.76 16.64 11.49 15.5 10.95 14.82C10.41 14.14 9.53 13.8 8.31 13.8H6.69V22.41ZM6.69 32.4H8.19C9.69 32.4 10.8 32 11.52 31.2C12.26 30.4 12.63 29.15 12.63 27.45C12.63 25.85 12.28 24.71 11.58 24.03C10.88 23.35 9.73 23.01 8.13 23.01H6.69V32.4Z" fill="white"/>
<path d="M28.66 33V32.7L29.26 32.49C29.66 32.37 29.92 32.19 30.04 31.95C30.18 31.71 30.25 31.39 30.25 30.99V15.27C30.25 14.87 30.18 14.55 30.04 14.31C29.9 14.07 29.63 13.88 29.23 13.74L28.66 13.5V13.2H35.95C38.93 13.2 41.08 13.75 42.4 14.85C43.74 15.93 44.41 17.36 44.41 19.14C44.41 20.28 44.13 21.33 43.57 22.29C43.03 23.23 42.13 23.98 40.87 24.54C39.61 25.1 37.91 25.38 35.77 25.38H34.75V30.9C34.75 31.68 35.14 32.19 35.92 32.43L36.82 32.7V33H28.66ZM34.75 24.78H35.89C36.87 24.78 37.67 24.62 38.29 24.3C38.91 23.98 39.37 23.42 39.67 22.62C39.97 21.82 40.12 20.71 40.12 19.29C40.12 17.85 39.95 16.73 39.61 15.93C39.29 15.13 38.81 14.58 38.17 14.28C37.53 13.96 36.73 13.8 35.77 13.8H34.75V24.78Z" fill="white"/>
<path d="M55.66 33V32.7L56.26 32.46C56.66 32.32 56.92 32.13 57.04 31.89C57.18 31.65 57.25 31.34 57.25 30.96V15.27C57.25 14.87 57.18 14.55 57.04 14.31C56.92 14.07 56.66 13.88 56.26 13.74L55.66 13.5V13.2H63.28V13.5L62.77 13.71C62.39 13.85 62.13 14.04 61.99 14.28C61.85 14.5 61.78 14.81 61.78 15.21V22.5H68.95V15.21C68.95 14.81 68.88 14.5 68.74 14.28C68.62 14.04 68.36 13.85 67.96 13.71L67.42 13.5V13.2H75.07V13.5L74.47 13.74C74.09 13.88 73.83 14.07 73.69 14.31C73.55 14.55 73.48 14.87 73.48 15.27V30.96C73.48 31.34 73.55 31.65 73.69 31.89C73.83 32.13 74.09 32.32 74.47 32.46L75.07 32.7V33H67.42V32.7L67.96 32.52C68.36 32.36 68.62 32.17 68.74 31.95C68.88 31.71 68.95 31.39 68.95 30.99V23.1H61.78V30.99C61.78 31.73 62.11 32.24 62.77 32.52L63.28 32.7V33H55.66Z" fill="white"/>
<path d="M23.18 27.54V22.72H18.6V22.32H23.18V17.58H23.66V22.32H28.24V22.72H23.66V27.54H23.18Z" fill="#60A5FA"/>
<path d="M50.18 27.54V22.72H45.6V22.32H50.18V17.58H50.66V22.32H55.24V22.72H50.66V27.54H50.18Z" fill="#60A5FA"/>
<path d="M82.39 11.615C82.77 11.675 83.115 11.83 83.425 12.08C83.745 12.33 83.995 12.64 84.175 13.01C84.365 13.38 84.46 13.775 84.46 14.195C84.46 14.725 84.325 15.205 84.055 15.635C83.785 16.055 83.39 16.39 82.87 16.64C82.36 16.88 81.755 17 81.055 17H77.155V6.545H80.905C81.615 6.545 82.22 6.665 82.72 6.905C83.22 7.135 83.595 7.45 83.845 7.85C84.095 8.25 84.22 8.7 84.22 9.2C84.22 9.82 84.05 10.335 83.71 10.745C83.38 11.145 82.94 11.435 82.39 11.615ZM78.52 11.06H80.815C81.455 11.06 81.95 10.91 82.3 10.61C82.65 10.31 82.825 9.895 82.825 9.365C82.825 8.835 82.65 8.42 82.3 8.12C81.95 7.82 81.445 7.67 80.785 7.67H78.52V11.06ZM80.935 15.875C81.615 15.875 82.145 15.715 82.525 15.395C82.905 15.075 83.095 14.63 83.095 14.06C83.095 13.48 82.895 13.025 82.495 12.695C82.095 12.355 81.56 12.185 80.89 12.185H78.52V15.875H80.935ZM87.6892 6.545V13.16C87.6892 14.09 87.9142 14.78 88.3642 15.23C88.8242 15.68 89.4592 15.905 90.2692 15.905C91.0692 15.905 91.6942 15.68 92.1442 15.23C92.6042 14.78 92.8342 14.09 92.8342 13.16V6.545H94.1992V13.145C94.1992 14.015 94.0242 14.75 93.6742 15.35C93.3242 15.94 92.8492 16.38 92.2492 16.67C91.6592 16.96 90.9942 17.105 90.2542 17.105C89.5142 17.105 88.8442 16.96 88.2442 16.67C87.6542 16.38 87.1842 15.94 86.8342 15.35C86.4942 14.75 86.3242 14.015 86.3242 13.145V6.545H87.6892ZM99.7913 17.105C99.1013 17.105 98.4813 16.985 97.9313 16.745C97.3913 16.495 96.9663 16.155 96.6563 15.725C96.3463 15.285 96.1863 14.78 96.1763 14.21H97.6313C97.6813 14.7 97.8813 15.115 98.2313 15.455C98.5913 15.785 99.1113 15.95 99.7913 15.95C100.441 15.95 100.951 15.79 101.321 15.47C101.701 15.14 101.891 14.72 101.891 14.21C101.891 13.81 101.781 13.485 101.561 13.235C101.341 12.985 101.066 12.795 100.736 12.665C100.406 12.535 99.9613 12.395 99.4013 12.245C98.7113 12.065 98.1563 11.885 97.7363 11.705C97.3263 11.525 96.9713 11.245 96.6713 10.865C96.3813 10.475 96.2363 9.955 96.2363 9.305C96.2363 8.735 96.3813 8.23 96.6713 7.79C96.9613 7.35 97.3663 7.01 97.8863 6.77C98.4163 6.53 99.0213 6.41 99.7013 6.41C100.681 6.41 101.481 6.655 102.101 7.145C102.731 7.635 103.086 8.285 103.166 9.095H101.666C101.616 8.695 101.406 8.345 101.036 8.045C100.666 7.735 100.176 7.58 99.5663 7.58C98.9963 7.58 98.5313 7.73 98.1713 8.03C97.8113 8.32 97.6313 8.73 97.6313 9.26C97.6313 9.64 97.7363 9.95 97.9463 10.19C98.1663 10.43 98.4313 10.615 98.7413 10.745C99.0613 10.865 99.5063 11.005 100.076 11.165C100.766 11.355 101.321 11.545 101.741 11.735C102.161 11.915 102.521 12.2 102.821 12.59C103.121 12.97 103.271 13.49 103.271 14.15C103.271 14.66 103.136 15.14 102.866 15.59C102.596 16.04 102.196 16.405 101.666 16.685C101.136 16.965 100.511 17.105 99.7913 17.105ZM106.645 6.545V17H105.28V6.545H106.645ZM117.191 17H115.826L110.336 8.675V17H108.971V6.53H110.336L115.826 14.84V6.53H117.191V17ZM120.883 7.655V11.15H124.693V12.275H120.883V15.875H125.143V17H119.518V6.53H125.143V7.655H120.883ZM130.524 17.105C129.834 17.105 129.214 16.985 128.664 16.745C128.124 16.495 127.699 16.155 127.389 15.725C127.079 15.285 126.919 14.78 126.909 14.21H128.364C128.414 14.7 128.614 15.115 128.964 15.455C129.324 15.785 129.844 15.95 130.524 15.95C131.174 15.95 131.684 15.79 132.054 15.47C132.434 15.14 132.624 14.72 132.624 14.21C132.624 13.81 132.514 13.485 132.294 13.235C132.074 12.985 131.799 12.795 131.469 12.665C131.139 12.535 130.694 12.395 130.134 12.245C129.444 12.065 128.889 11.885 128.469 11.705C128.059 11.525 127.704 11.245 127.404 10.865C127.114 10.475 126.969 9.955 126.969 9.305C126.969 8.735 127.114 8.23 127.404 7.79C127.694 7.35 128.099 7.01 128.619 6.77C129.149 6.53 129.754 6.41 130.434 6.41C131.414 6.41 132.214 6.655 132.834 7.145C133.464 7.635 133.819 8.285 133.899 9.095H132.399C132.349 8.695 132.139 8.345 131.769 8.045C131.399 7.735 130.909 7.58 130.299 7.58C129.729 7.58 129.264 7.73 128.904 8.03C128.544 8.32 128.364 8.73 128.364 9.26C128.364 9.64 128.469 9.95 128.679 10.19C128.899 10.43 129.164 10.615 129.474 10.745C129.794 10.865 130.239 11.005 130.809 11.165C131.499 11.355 132.054 11.545 132.474 11.735C132.894 11.915 133.254 12.2 133.554 12.59C133.854 12.97 134.004 13.49 134.004 14.15C134.004 14.66 133.869 15.14 133.599 15.59C133.329 16.04 132.929 16.405 132.399 16.685C131.869 16.965 131.244 17.105 130.524 17.105ZM139.327 17.105C138.637 17.105 138.017 16.985 137.467 16.745C136.927 16.495 136.502 16.155 136.192 15.725C135.882 15.285 135.722 14.78 135.712 14.21H137.167C137.217 14.7 137.417 15.115 137.767 15.455C138.127 15.785 138.647 15.95 139.327 15.95C139.977 15.95 140.487 15.79 140.857 15.47C141.237 15.14 141.427 14.72 141.427 14.21C141.427 13.81 141.317 13.485 141.097 13.235C140.877 12.985 140.602 12.795 140.272 12.665C139.942 12.535 139.497 12.395 138.937 12.245C138.247 12.065 137.692 11.885 137.272 11.705C136.862 11.525 136.507 11.245 136.207 10.865C135.917 10.475 135.772 9.955 135.772 9.305C135.772 8.735 135.917 8.23 136.207 7.79C136.497 7.35 136.902 7.01 137.422 6.77C137.952 6.53 138.557 6.41 139.237 6.41C140.217 6.41 141.017 6.655 141.637 7.145C142.267 7.635 142.622 8.285 142.702 9.095H141.202C141.152 8.695 140.942 8.345 140.572 8.045C140.202 7.735 139.712 7.58 139.102 7.58C138.532 7.58 138.067 7.73 137.707 8.03C137.347 8.32 137.167 8.73 137.167 9.26C137.167 9.64 137.272 9.95 137.482 10.19C137.702 10.43 137.967 10.615 138.277 10.745C138.597 10.865 139.042 11.005 139.612 11.165C140.302 11.355 140.857 11.545 141.277 11.735C141.697 11.915 142.057 12.2 142.357 12.59C142.657 12.97 142.807 13.49 142.807 14.15C142.807 14.66 142.672 15.14 142.402 15.59C142.132 16.04 141.732 16.405 141.202 16.685C140.672 16.965 140.047 17.105 139.327 17.105Z" fill="white"/>
<path d="M84.145 21.605C84.145 22.475 83.845 23.2 83.245 23.78C82.655 24.35 81.75 24.635 80.53 24.635H78.52V29H77.155V18.545H80.53C81.71 18.545 82.605 18.83 83.215 19.4C83.835 19.97 84.145 20.705 84.145 21.605ZM80.53 23.51C81.29 23.51 81.85 23.345 82.21 23.015C82.57 22.685 82.75 22.215 82.75 21.605C82.75 20.315 82.01 19.67 80.53 19.67H78.52V23.51H80.53ZM87.2065 27.89H90.8665V29H85.8415V18.545H87.2065V27.89ZM98.4961 26.675H93.9361L93.0961 29H91.6561L95.4361 18.605H97.0111L100.776 29H99.3361L98.4961 26.675ZM98.1061 25.565L96.2161 20.285L94.3261 25.565H98.1061ZM110.644 29H109.279L103.789 20.675V29H102.424V18.53H103.789L109.279 26.84V18.53H110.644V29Z" fill="white"/>
<path d="M85.21 30.545V41H83.845V36.26H78.52V41H77.155V30.545H78.52V35.135H83.845V30.545H85.21ZM88.8757 30.545V37.16C88.8757 38.09 89.1007 38.78 89.5507 39.23C90.0107 39.68 90.6457 39.905 91.4557 39.905C92.2557 39.905 92.8807 39.68 93.3307 39.23C93.7907 38.78 94.0207 38.09 94.0207 37.16V30.545H95.3857V37.145C95.3857 38.015 95.2107 38.75 94.8607 39.35C94.5107 39.94 94.0357 40.38 93.4357 40.67C92.8457 40.96 92.1807 41.105 91.4407 41.105C90.7007 41.105 90.0307 40.96 89.4307 40.67C88.8407 40.38 88.3707 39.94 88.0207 39.35C87.6807 38.75 87.5107 38.015 87.5107 37.145V30.545H88.8757ZM102.898 35.615C103.278 35.675 103.623 35.83 103.933 36.08C104.253 36.33 104.503 36.64 104.683 37.01C104.873 37.38 104.968 37.775 104.968 38.195C104.968 38.725 104.833 39.205 104.563 39.635C104.293 40.055 103.898 40.39 103.378 40.64C102.868 40.88 102.263 41 101.563 41H97.6628V30.545H101.413C102.123 30.545 102.728 30.665 103.228 30.905C103.728 31.135 104.103 31.45 104.353 31.85C104.603 32.25 104.728 32.7 104.728 33.2C104.728 33.82 104.558 34.335 104.218 34.745C103.888 35.145 103.448 35.435 102.898 35.615ZM99.0278 35.06H101.323C101.963 35.06 102.458 34.91 102.808 34.61C103.158 34.31 103.333 33.895 103.333 33.365C103.333 32.835 103.158 32.42 102.808 32.12C102.458 31.82 101.953 31.67 101.293 31.67H99.0278V35.06ZM101.443 39.875C102.123 39.875 102.653 39.715 103.033 39.395C103.413 39.075 103.603 38.63 103.603 38.06C103.603 37.48 103.403 37.025 103.003 36.695C102.603 36.355 102.068 36.185 101.398 36.185H99.0278V39.875H101.443Z" fill="white"/>
</svg>
